<svg width="36" height="36" viewBox="0 0 36 36" fill="none" xmlns="http://www.w3.org/2000/svg">
<path d="M28.0547 5.625H12.8672C12.7125 5.625 12.5859 5.75156 12.5859 5.90625V8.15625C12.5859 8.31094 12.7125 8.4375 12.8672 8.4375H19.2375L13.7531 27.5625H8.05078C7.89609 27.5625 7.76953 27.6891 7.76953 27.8438V30.0938C7.76953 30.2484 7.89609 30.375 8.05078 30.375H23.2383C23.393 30.375 23.5195 30.2484 23.5195 30.0938V27.8438C23.5195 27.6891 23.393 27.5625 23.2383 27.5625H16.6781L22.1625 8.4375H28.0547C28.2094 8.4375 28.3359 8.31094 28.3359 8.15625V5.90625C28.3359 5.75156 28.2094 5.625 28.0547 5.625Z" fill="black"/>
</svg>
